<svg width="176" height="40" viewBox="0 0 176 40" fill="none" xmlns="http://www.w3.org/2000/svg">
<g opacity="0.3">
<path fill-rule="evenodd" clip-rule="evenodd" d="M29.1588 5.29033C30.1265 5.61291 30.8362 6.51613 30.9007 7.48387L33.2878 28.1936H39.0943C42.5136 28.1936 44.9007 27.0323 46.3846 25.4194C47.933 23.8065 48.7072 21.6129 48.7072 19.2903C48.7072 17.0323 47.8685 14.8387 46.3846 13.1613C44.9007 11.5484 42.5136 10.3871 39.0943 10.3871H35.3523L34.7072 5.16129H39.1588C43.933 5.16129 47.7394 6.83871 50.3201 9.61291C52.9007 12.3226 54.1265 15.871 54.1265 19.3548C54.1265 22.8387 52.9007 26.3871 50.3201 29.0968C47.7394 31.8065 43.933 33.5484 39.1588 33.5484H30.9652C29.6104 33.5484 28.4491 32.5161 28.3201 31.1613L26.3201 13.5484L11.6749 28.2581H23.8684L24.5781 33.6129H5.22329C4.12651 33.6129 3.15877 32.9677 2.77167 32C2.38458 31.0323 2.57813 29.871 3.35232 29.0968L26.4491 5.93549C27.1588 5.22581 28.191 4.96775 29.1588 5.29033Z" fill="white"/>
<path d="M114.902 15.2903C112.773 15.2903 110.967 16.1291 109.87 17.5484C108.902 16 107.16 15.2903 105.16 15.2903C103.612 15.2903 102.193 15.742 101.096 16.5807V15.4839H97.0312V29.4194H101.096V20.9678C101.741 19.6774 102.773 18.7742 104.128 18.7742C105.741 18.7742 106.773 19.8065 106.773 22.0645V29.4194H110.838C110.838 29.4194 110.838 21.0968 110.838 20.9678C111.483 19.6129 112.58 18.7742 113.934 18.7742C115.547 18.7742 116.58 19.8065 116.58 22.0645V29.4194H120.644V21.4839C120.58 17.2258 118.257 15.2903 114.902 15.2903Z" fill="white"/>
<path d="M75.2911 29.4193H79.6782L71.5491 11.0322H71.2911H67.3556L59.2266 29.4193H63.6137L65.2911 25.2903H73.5491L75.2911 29.4193ZM66.7104 22.258L69.4846 15.4838L72.2588 22.258H66.7104Z" fill="white"/>
<path d="M123.356 15.4839H127.42V29.4194H123.356V15.4839ZM127.743 11.4194C127.743 12.7097 126.711 13.8065 125.356 13.8065C124.066 13.8065 122.969 12.7742 122.969 11.4194C122.969 10.1291 124.001 9.03229 125.356 9.03229C126.646 9.03229 127.743 10.0645 127.743 11.4194Z" fill="white"/>
<path d="M139.614 28.7742C138.775 29.3549 137.549 29.6774 136.324 29.6774C133.033 29.6774 131.098 28 131.098 24.7097V18.6452H128.969V15.4839H131.098V12.3871L135.162 11.2903V15.4839H138.646V18.5807H135.162V24.5807C135.162 25.8065 135.807 26.3871 136.904 26.3871C137.485 26.3871 138.13 26.1936 138.517 25.871L139.614 28.7742Z" fill="white"/>
<path d="M146.711 15.2903C144.453 15.2903 142.26 15.871 140.711 16.9678L142.195 19.8065C143.228 19.0323 144.711 18.5162 146.195 18.5162C148.389 18.5162 149.421 19.5484 149.421 21.2903C148.389 21.0968 147.034 21.0323 146.195 21.0323C141.937 21.0323 140.195 22.9678 140.195 25.4194C140.195 27.8065 142.131 29.6129 145.421 29.6129C147.292 29.6129 148.582 29.1613 149.421 28.1936V29.3549H149.679H153.486V21.4839C153.421 17.2258 150.905 15.2903 146.711 15.2903ZM146.389 26.9678C144.969 26.9678 144.131 26.2581 144.131 25.2903C144.131 24.3226 144.711 23.6774 146.647 23.6774C146.647 23.6774 148.518 23.6129 149.421 23.9355C149.421 24.3226 149.421 24.9032 149.421 24.9032C148.905 26.0645 147.744 26.9678 146.389 26.9678Z" fill="white"/>
<path d="M90.1943 11.0323V16.5161C89.0975 15.7419 87.8072 15.2903 86.3878 15.2903C82.4524 15.2903 79.2266 18.5161 79.2266 22.4516C79.2266 26.3871 82.4524 29.6129 86.3878 29.6129C87.8072 29.6129 89.0975 29.0968 90.1943 28.3226V29.4194H94.2588V10L90.1943 11.0323ZM83.2266 22.5161C83.2266 19.3548 86.7104 17.4839 90.1298 20.0645V24.9677C86.5814 27.6774 83.2266 25.4839 83.2266 22.5161Z" fill="white"/>
<path d="M166.257 11.0323V16.5161C165.16 15.7419 163.87 15.2903 162.45 15.2903C158.515 15.2903 155.289 18.5161 155.289 22.4516C155.289 26.3871 158.515 29.6129 162.45 29.6129C163.87 29.6129 165.16 29.0968 166.257 28.3226V29.4194H170.321V10L166.257 11.0323ZM159.289 22.5161C159.289 19.3548 162.773 17.4839 166.192 20.0645V24.9677C162.644 27.6774 159.289 25.4839 159.289 22.5161Z" fill="white"/>
</g>
</svg>
