<svg width="107" height="33" viewBox="0 0 107 33" fill="none" xmlns="http://www.w3.org/2000/svg">
<g opacity="0.3" clip-path="url(#clip0_1100_3450)">
<path d="M49.3476 0.14678C48.7877 0.400626 47.2481 0.80916 45.4685 1.1701C43.5289 1.56673 42.3012 1.9475 41.1695 2.50676C38.774 3.69269 37.1584 5.64414 36.2346 8.46024C35.5748 10.4672 35.2629 12.6566 35.2029 15.6473C35.1109 20.3672 35.8587 23.8378 37.4064 25.8923C38.6221 27.5027 40.3137 28.284 42.5771 28.2801C45.5724 28.2761 47.7839 26.7372 48.9237 23.8655C49.6715 21.9855 49.9834 19.4391 49.8274 16.5C49.7035 14.1678 49.3316 12.4147 48.6877 11.086C48.3958 10.487 48.1158 10.0785 47.6959 9.65015C46.7762 8.70616 45.6924 8.28572 44.1688 8.27779C42.8771 8.27382 41.7014 8.68632 40.5536 9.54702C40.4576 9.61842 40.3737 9.67394 40.3657 9.66998C40.3617 9.66204 40.3817 9.51926 40.4097 9.3487C40.6536 7.96842 41.1735 7.07995 42.0253 6.58416C42.7251 6.17959 44.1088 5.82262 45.9484 5.57274C48.1039 5.27923 48.7357 5.16024 49.2876 4.94606L49.6075 4.81914L49.6195 2.42743C49.6235 1.11457 49.6155 0.0396886 49.5995 0.0436549C49.5795 0.0436549 49.4675 0.0912511 49.3476 0.14678ZM42.6331 11.6254C42.993 11.6968 43.345 11.8951 43.6209 12.1727C44.0768 12.6249 44.4327 13.5054 44.6087 14.616C44.7406 15.4291 44.7926 16.1907 44.8166 17.6106C44.8486 19.7445 44.7526 21.2596 44.5087 22.4932C44.2648 23.7148 43.8648 24.4407 43.281 24.7302C43.065 24.8413 43.017 24.8492 42.5891 24.8492C42.1492 24.8492 42.1173 24.8452 41.8613 24.7183C40.9735 24.286 40.5256 22.9176 40.3097 20.0102C40.2577 19.3161 40.1737 12.8193 40.2097 12.3473L40.2377 11.9705L40.4856 11.8594C41.1335 11.5659 41.9333 11.4786 42.6331 11.6254Z" fill="white"/>
<path d="M92.6784 0.559232C91.5227 0.9519 91.1228 2.32822 91.7706 3.67678C92.1025 4.36692 92.5544 4.92618 93.7661 6.15575C94.222 6.61981 94.6579 7.08387 94.7299 7.187C94.8059 7.29409 94.8779 7.37738 94.8859 7.37738C94.9499 7.37738 95.9696 6.53652 96.4815 6.06452C97.3933 5.21572 97.9852 4.49385 98.3131 3.8275C98.569 3.30791 98.629 3.06993 98.621 2.60983C98.609 1.86416 98.3891 1.28111 97.9732 0.900337C97.6252 0.579063 97.3973 0.499737 96.7934 0.499737C96.3775 0.49577 96.2816 0.511636 96.0736 0.590963C95.7697 0.713919 95.3818 1.08676 95.2778 1.3525L95.2058 1.53495L94.8819 1.21368C94.234 0.571131 93.3862 0.317285 92.6784 0.559232Z" fill="white"/>
<path d="M3.3634 3.05012V4.9976H4.34317C5.20297 4.9976 5.32294 5.00553 5.32294 5.05709C5.32294 5.09279 5.26695 5.76707 5.20297 6.55637C4.74707 11.9109 4.11522 16.7538 3.30741 21.0692C3.08746 22.2353 2.69555 24.1035 2.65956 24.163C2.64757 24.1788 2.04371 24.1947 1.31588 24.1947H-0.0078125L0.0201809 24.3534C0.0721688 24.6707 0.164147 26.1105 0.204138 27.229C0.224133 27.8596 0.244128 29.4184 0.244128 30.6876V33H2.28765H4.33117L4.30718 32.8334C4.23519 32.3178 4.13522 29.7595 4.12322 27.9905V27.8438H9.7619H15.4006V30.4219V33H17.4801H19.5596L19.5396 32.9088C19.4436 32.4606 19.3597 29.5691 19.3597 26.523V24.1947H18.1799H17.0002V18.2531C17.0002 10.4553 17.0682 4.42248 17.1842 1.91575L17.2122 1.35649L11.4975 1.33666C5.54689 1.31683 4.55512 1.28906 3.51536 1.12248L3.3634 1.09868V3.05012ZM11.9134 14.6358L11.9014 24.1947H9.49396C7.33847 24.1947 7.08253 24.1868 7.08253 24.1313C7.08253 24.0995 7.16251 23.6553 7.26248 23.1436C8.17427 18.4237 8.72614 13.3785 9.18603 5.54099L9.21403 5.07692H10.5697H11.9254L11.9134 14.6358Z" fill="white"/>
<path d="M25.6726 8.05172C24.005 8.25797 22.6413 8.93622 21.6656 10.0508C20.3499 11.554 19.6021 13.7514 19.3901 16.7103C19.3301 17.6027 19.3621 19.9706 19.4501 20.744C20.034 25.8884 22.2934 28.2761 26.5804 28.2801C28.0881 28.2801 29.2718 27.9509 30.3915 27.2211C30.8834 26.8998 31.6552 26.1145 32.0271 25.5671C32.767 24.4645 33.2669 23.1159 33.5468 21.4778C33.9187 19.2805 33.9027 16.3731 33.5068 14.2789C32.799 10.5624 31.0114 8.58718 27.9201 8.10725C27.4522 8.03586 26.0885 8.00413 25.6726 8.05172ZM27.1403 11.6651C27.4082 11.7682 27.7521 12.0736 27.9281 12.3711C28.336 13.0612 28.5839 14.1321 28.7199 15.8059C28.7879 16.6309 28.7879 19.7048 28.7199 20.5655C28.548 22.7669 28.212 23.9607 27.6122 24.5081C27.3522 24.7461 27.1163 24.8413 26.7284 24.8611C26.0006 24.9008 25.5087 24.5954 25.1368 23.8774C24.5969 22.8343 24.3809 21.2359 24.3809 18.2849C24.3809 13.6879 24.9048 11.8237 26.2725 11.5659C26.4564 11.5342 26.9243 11.5857 27.1403 11.6651Z" fill="white"/>
<path d="M57.3131 8.05565C55.8255 8.22224 54.5138 8.81719 53.514 9.77704C52.3143 10.9313 51.6385 12.3552 51.3225 14.3978C51.2586 14.8183 51.2546 15.5441 51.2426 23.925L51.2266 33H53.814H56.3974L56.3734 32.7105C56.2894 31.7982 56.2654 31.2508 56.2414 29.5612L56.2174 27.6891L56.4973 27.8239C57.0612 28.1055 58.061 28.2681 58.8888 28.2206C60.5564 28.1174 61.9041 27.578 62.9358 26.5983C64.3435 25.2696 65.0953 23.4213 65.3952 20.5853C65.4752 19.8397 65.4592 17.1981 65.3752 16.262C65.1313 13.6522 64.6114 11.8594 63.7036 10.5108C63.3957 10.0507 62.6839 9.32885 62.268 9.05517C61.5321 8.56731 60.7043 8.26587 59.6686 8.11118C59.1647 8.03582 57.781 8.00012 57.3131 8.05565ZM58.5728 11.6412C59.4406 11.899 59.9845 13.0096 60.2444 15.0523C60.3844 16.147 60.4084 16.6825 60.4084 18.6815C60.4084 20.3117 60.3924 20.7956 60.3364 21.2794C60.1165 23.1833 59.7966 24.1075 59.1087 24.7897C58.7728 25.1268 58.4809 25.2974 58.029 25.4243C57.689 25.5155 56.9012 25.5829 56.5093 25.5472L56.2494 25.5234L56.2374 19.5343C56.2254 12.7994 56.2134 13.1048 56.5093 12.494C56.7573 11.9903 57.0932 11.7087 57.5891 11.5936C57.841 11.5381 58.2969 11.5579 58.5728 11.6412Z" fill="white"/>
<path d="M66.5943 8.51575C66.7063 9.10277 66.7463 10.8956 66.7783 16.5397C66.8023 21.6404 66.8143 22.3623 66.8742 22.7668C67.2462 25.2974 68.1699 26.8125 69.8455 27.6454C71.3532 28.3951 73.6766 28.4942 75.5562 27.8953C78.1236 27.0783 79.7672 25.0356 80.1951 22.1322C80.2871 21.5373 80.3151 20.3077 80.2591 19.689C79.9632 16.5238 78.2356 14.3978 75.5802 13.9417C75.0843 13.8545 74.0526 13.8624 73.4887 13.9576C72.9728 14.0488 72.4049 14.2233 72.009 14.4216L71.7371 14.5565V11.4826V8.40866H69.1537H66.5703L66.5943 8.51575ZM73.1168 17.0355C74.2085 17.2615 74.8644 18.1064 75.1483 19.6533C75.2243 20.0777 75.2363 20.2641 75.2363 21.339C75.2363 22.3464 75.2243 22.6161 75.1603 22.9453C74.9483 24.0876 74.5884 24.7024 73.9446 25.0158C73.6527 25.1625 73.6287 25.1665 73.2208 25.1665C72.8408 25.1665 72.7769 25.1546 72.5929 25.0594C72.225 24.869 71.977 24.4843 71.8331 23.8774C71.7691 23.6077 71.7611 23.2626 71.7491 20.2998L71.7331 17.0196L71.8651 17.0037C72.189 16.9641 72.8568 16.9799 73.1168 17.0355Z" fill="white"/>
<path d="M81.0006 8.51574C81.0485 8.75769 81.1085 9.84844 81.1445 11.2446C81.1645 12.0498 81.1845 16.1153 81.1845 20.276V27.8438H83.7879H86.3953L86.3713 27.697C86.1873 26.5626 86.1713 25.805 86.1553 16.9046L86.1394 8.40865H83.56H80.9766L81.0006 8.51574Z" fill="white"/>
<path d="M87.8594 8.44436C87.8594 8.46419 87.8874 8.7101 87.9194 8.99171C88.0473 10.1221 88.0713 11.201 88.0993 17.7097C88.1273 24.1352 88.1273 24.2621 88.2113 24.6945C88.4112 25.7376 88.7432 26.4714 89.279 27.0426C89.9229 27.7327 90.8027 28.1016 92.0424 28.2007C93.0981 28.288 93.9739 28.0698 94.8537 27.5026C95.6376 26.995 96.2494 26.3881 97.0852 25.2815L97.1732 25.1665V26.5031L97.1772 27.8438H99.7406H102.304L102.28 27.5145C102.264 27.3361 102.232 26.9394 102.208 26.634C102.18 26.281 102.16 22.8541 102.148 17.2417L102.132 8.40866H99.5126C97.0332 8.40866 96.8933 8.41262 96.9133 8.47609C96.9452 8.58714 97.0532 10.0468 97.1012 11.0463C97.1252 11.546 97.1532 14.3978 97.1652 17.3766L97.1892 22.7906L96.9332 22.981C96.3774 23.3975 95.9295 23.5601 95.2736 23.5879C94.2139 23.6355 93.65 23.3776 93.3341 22.7073C93.0702 22.152 93.0862 22.5685 93.0702 15.1395L93.0542 8.40866H90.4588C88.9351 8.40866 87.8594 8.42452 87.8594 8.44436Z" fill="white"/>
<path d="M104.242 8.50781C103.934 8.63077 103.658 8.90445 103.518 9.21382C103.226 9.8524 103.526 10.6615 104.17 10.9749C104.37 11.074 104.442 11.0859 104.778 11.0859C105.094 11.0859 105.19 11.0701 105.342 10.9947C105.642 10.848 105.842 10.6496 105.986 10.3601C106.106 10.1221 106.118 10.0626 106.118 9.73738C106.118 9.428 106.102 9.35264 106.006 9.15433C105.694 8.52368 104.91 8.23413 104.242 8.50781ZM105.178 8.72993C105.398 8.82909 105.598 9.01154 105.71 9.22175C105.782 9.34868 105.798 9.44784 105.798 9.73738C105.798 10.0587 105.786 10.1142 105.678 10.3125C105.526 10.5862 105.286 10.7686 104.998 10.8281C104.118 11.0106 103.434 10.0864 103.83 9.24952C104.062 8.74976 104.686 8.50781 105.178 8.72993Z" fill="white"/>
<path d="M104.239 9.03135C104.223 9.04325 104.211 9.37642 104.211 9.76512V10.4711H104.371H104.531V10.1935V9.91584H104.683C104.831 9.91584 104.839 9.92377 104.971 10.1935L105.107 10.4711H105.283H105.459L105.291 10.1737L105.127 9.87221L105.247 9.75719C105.351 9.66596 105.371 9.6144 105.371 9.46764C105.371 9.2257 105.267 9.10274 105.007 9.04721C104.787 8.99962 104.279 8.98772 104.239 9.03135ZM104.927 9.28519C105.031 9.32089 105.051 9.34865 105.051 9.46368C105.051 9.6263 104.967 9.67786 104.715 9.67786H104.531V9.45971V9.24156H104.667C104.739 9.24156 104.855 9.26139 104.927 9.28519Z" fill="white"/>
</g>
<defs>
<clipPath id="clip0_1100_3450">
<rect width="106.135" height="33" fill="white"/>
</clipPath>
</defs>
</svg>
