<svg width="117" height="28" viewBox="0 0 117 28" fill="none" xmlns="http://www.w3.org/2000/svg">
<g opacity="0.4">
<path d="M25.7864 26.8477L15.9132 17.3309L25.1209 8.30848H19.5791L13.1208 14.9251L6.74537 8.30848H0.954755L10.2454 17.4365L0.539062 26.8477H6.07983L13.0368 19.8413L20.0368 26.8466L25.7864 26.8477ZM39.2372 7.84325C33.7794 7.84325 29.1529 9.43495 28.7792 13.8234H33.1537C33.5704 11.6653 35.986 10.6379 39.2383 10.6379C43.3198 10.6745 45.1118 12.3373 45.1118 14.4609V15.5917L37.6531 16.1226C31.0709 16.548 27.488 18.2453 27.488 21.854C27.488 24.8619 30.0295 27.2333 35.7781 27.2333C40.4455 27.2333 43.7366 25.6049 45.4457 23.0225V26.8079H49.8201V15.274C49.8201 10.3568 46.0692 7.84325 39.2372 7.84325ZM37.1124 24.4365C33.6544 24.4365 32.1123 23.2357 32.1123 21.6785C32.1123 19.768 34.2791 18.7762 38.2368 18.494L45.1118 18.0342V18.9539C45.1118 22.0317 42.1126 24.4365 37.1124 24.4365ZM66.5684 6.40448C71.2358 6.40448 73.4015 4.35294 73.5684 1.38171H70.4023C70.2774 2.62018 69.4029 4.14079 66.5684 4.14079C63.7361 4.14079 62.8606 2.6191 62.7357 1.38171H59.5695C59.7364 4.35402 61.9021 6.40448 66.5684 6.40448ZM71.1098 8.25464L59.6115 24.0337V8.25464H55.11V26.7949H62.026L73.5264 11.0148V26.7949H78.0258V8.25464H71.1098ZM105.815 20.3323L101.232 20.0502C100.524 22.7026 97.8994 24.1554 94.4414 24.1554C89.9829 24.1554 87.0246 21.7129 87.0246 17.5388C87.0246 13.3636 89.9829 10.9222 94.3164 10.9222C97.5655 10.9222 100.274 12.2306 100.983 14.8142L105.524 14.5309C104.692 10.1436 100.065 7.84325 94.3164 7.84325C87.1075 7.84325 82.4003 11.2399 82.4003 17.5388C82.4003 23.8356 87.1075 27.2333 94.4414 27.2333C100.399 27.2333 104.941 24.8263 105.815 20.3323Z" fill="white"/>
<path d="M115.008 22.0187H110.336V26.8757H115.008V22.0187Z" fill="white"/>
</g>
</svg>
