<svg width="149" height="30" viewBox="0 0 149 30" fill="none" xmlns="http://www.w3.org/2000/svg">
<g opacity="0.3" clip-path="url(#clip0_1100_3413)">
<path d="M35.0625 3.22709H41.4221V20.4905H48.2356V25.9424H35.0625V3.22709Z" fill="white"/>
<mask id="mask0_1100_3413" style="mask-type:luminance" maskUnits="userSpaceOnUse" x="-156" y="-51" width="1722" height="2435">
<path d="M-155.688 2383.53H1565.09V-50.146H-155.688V2383.53Z" fill="white"/>
</mask>
<g mask="url(#mask0_1100_3413)">
<path d="M50.7891 16.7588V3.22726H57.1487V16.6287C57.1487 18.0249 57.4088 21.1382 60.7823 21.1382C64.1587 21.1382 64.4189 18.0249 64.4189 16.6287V3.22726H70.7785V16.7588C70.7785 19.1928 70.2581 26.5901 60.7823 26.5901C51.3094 26.5901 50.7891 19.1928 50.7891 16.7588Z" fill="white"/>
</g>
<path d="M74.9219 3.22709H81.2815V12.7665L88.1296 3.22709H95.5935L86.9618 14.2263L95.819 25.9424H87.8695L81.2815 16.1747V25.9424H74.9219V3.22709Z" fill="white"/>
<path d="M124.688 3.22571H131.047V25.9412H124.688V3.22571Z" fill="white"/>
<path d="M135.703 3.22709H142.063V20.4905H148.879V25.9424H135.703V3.22709Z" fill="white"/>
<mask id="mask1_1100_3413" style="mask-type:luminance" maskUnits="userSpaceOnUse" x="-156" y="-51" width="1722" height="2435">
<path d="M-155.688 2383.53H1565.09V-50.146H-155.688V2383.53Z" fill="white"/>
</mask>
<g mask="url(#mask1_1100_3413)">
<path d="M114.318 14.6013C114.318 10.1178 111.561 7.8948 108.54 7.8948C105.519 7.8948 102.761 10.1178 102.761 14.6013C102.761 19.0848 105.519 21.3078 108.54 21.3078C111.561 21.3078 114.318 19.0848 114.318 14.6013ZM96.0547 14.6013C96.0547 8.39201 100.041 2.31569 108.54 2.31569C117.041 2.31569 121.025 8.39201 121.025 14.6013C121.025 20.8106 117.041 26.8869 108.54 26.8869C100.041 26.8869 96.0547 20.8106 96.0547 14.6013Z" fill="white"/>
</g>
<path d="M0 -0.000393653H29.9364V29.9998H0V-0.000393653Z" fill="white"/>
<mask id="mask2_1100_3413" style="mask-type:luminance" maskUnits="userSpaceOnUse" x="-156" y="-51" width="1722" height="2435">
<path d="M-155.688 2383.53H1565.09V-50.146H-155.688V2383.53Z" fill="white"/>
</mask>
<g mask="url(#mask2_1100_3413)">
<path d="M26.6217 5.69403L23.2598 11.1315C22.8927 11.7414 22.9476 12.2213 23.1181 12.6838L28.2232 25.7441H7.08036C5.18404 25.7441 3.71555 24.2207 3.71555 22.4053L3.69531 5.02049C3.74735 2.7744 7.01965 2.73682 7.08036 5.01182V21.3069C7.07458 21.8243 7.52842 22.4053 8.1268 22.3909H23.6124L19.603 12.9555C19.4989 12.5942 19.4267 12.2358 19.4267 11.8744C19.4267 11.4755 19.603 10.8366 19.8661 10.3163L23.546 4.25734C23.8177 3.71388 24.3669 3.34676 25.0202 3.32074C25.9366 3.28027 26.72 3.91045 26.7605 4.88463C26.7633 5.07831 26.7171 5.50325 26.6217 5.69403Z" fill="#080607"/>
<path d="M14.9575 16.6735V5.01234C14.9575 2.73734 18.2761 2.71999 18.3137 5.01234V16.8007C18.3137 19.4978 16.2988 21.2814 13.8302 21.2814C11.3644 21.2814 9.34375 19.4544 9.34375 16.8007V5.01234C9.34375 2.73734 12.6999 2.73734 12.6999 5.01234V16.6735C12.6999 18.2374 14.9575 18.3328 14.9575 16.6735Z" fill="#080607"/>
</g>
</g>
<defs>
<clipPath id="clip0_1100_3413">
<rect width="148.88" height="30" fill="white"/>
</clipPath>
</defs>
</svg>
