<svg width="184" height="71" viewBox="0 0 184 71" fill="none" xmlns="http://www.w3.org/2000/svg">
<g opacity="0.4">
<path d="M21.8495 8.87499C21.4901 9.23286 21.4901 9.4762 21.8351 9.79112C22.1801 10.106 22.6832 10.0345 22.9564 9.64798C23.1289 9.39031 23.1145 9.30443 22.8414 8.97519C22.482 8.51713 22.2376 8.4885 21.8495 8.87499Z" fill="white"/>
<path d="M149.027 11.9955C148.711 12.3391 148.725 12.6397 149.041 12.926C149.544 13.384 150.22 13.0691 150.22 12.382C150.22 11.7808 149.444 11.5375 149.027 11.9955Z" fill="white"/>
<path d="M151.254 13.3411C151.283 13.5272 151.398 13.6703 151.513 13.6703C151.628 13.6703 151.743 13.5272 151.772 13.3411C151.815 13.0978 151.743 13.0262 151.513 13.0262C151.283 13.0262 151.211 13.0978 151.254 13.3411Z" fill="white"/>
<path d="M161.918 14.2429C161.789 14.5722 161.961 14.8871 162.278 14.8871C162.637 14.8871 162.766 14.6867 162.651 14.3145C162.551 13.9853 162.033 13.928 161.918 14.2429Z" fill="white"/>
<path d="M77.8807 16.0608C77.4351 16.4044 77.4926 17.0915 77.9813 17.4064C78.312 17.6211 78.3982 17.6211 78.7288 17.4493C78.9301 17.3348 79.1601 17.1058 79.2463 16.934C79.3613 16.662 79.3326 16.5332 79.0595 16.2469C78.6857 15.8604 78.2401 15.7888 77.8807 16.0608Z" fill="white"/>
<path d="M85.5746 23.9196C84.8702 24.3776 84.6977 25.2222 85.0571 26.5248C85.2152 27.1403 86.9115 27.7845 87.1846 27.3407C87.2852 27.1689 87.9752 27.1403 87.9752 27.3121C87.9752 27.3837 88.2052 27.6986 88.4927 28.0278C88.9096 28.5145 89.0965 28.629 89.4846 28.629C90.0596 28.629 90.5627 28.0851 90.5627 27.4552C90.5627 26.9256 89.9877 26.3387 89.4559 26.3387C88.8665 26.3387 88.7515 26.1956 88.6365 25.4655C88.5215 24.7212 88.1477 24.3633 87.084 23.9768C86.0777 23.6046 86.049 23.6046 85.5746 23.9196Z" fill="white"/>
<path d="M18.2258 25.9093C17.6652 26.2528 18.1539 26.8111 18.9445 26.7681C19.7495 26.7109 20.0083 26.7824 20.3389 27.126L20.6983 27.4695V32.7373C20.6983 37.8046 20.7702 39.007 21.0577 39.007C21.1295 39.007 21.3164 38.6778 21.4745 38.2913C21.7189 37.6615 21.762 37.0746 21.8195 33.5962C21.877 30.1177 21.9202 29.5881 22.1358 29.3161C22.4377 28.9296 22.7827 29.0441 22.912 29.5738C22.9695 29.7885 23.2427 30.447 23.5158 31.0339C23.7889 31.6208 24.062 32.3078 24.1052 32.5512C24.1483 32.7945 24.2777 33.1524 24.3783 33.3528C24.8383 34.2546 25.8733 36.7453 25.8733 36.9601C25.8733 37.1605 27.0377 39.551 27.3395 39.9661C27.7852 40.596 28.1014 40.4814 28.7483 39.4794C29.1508 38.8639 29.2945 38.506 29.237 38.3056C29.0933 37.8189 28.202 35.8578 27.0952 33.5675C26.5202 32.3794 26.0027 31.2629 25.9595 31.0625C25.902 30.8621 25.7295 30.4183 25.5858 30.0605C25.442 29.7026 25.1545 29.0012 24.9533 28.4859C24.752 27.9705 24.4933 27.355 24.3783 27.126C24.2489 26.8826 24.1483 26.6107 24.1483 26.5248C24.1483 26.4246 24.0045 26.2528 23.8177 26.124C23.4008 25.852 18.6139 25.6802 18.2258 25.9093Z" fill="white"/>
<path d="M97.6173 26.1383C97.0567 26.6107 97.0136 27.2835 97.5023 27.7415C98.0054 28.2139 98.5086 28.1423 99.0261 27.5554C99.5723 26.9256 99.5867 26.7109 99.0548 26.1812C98.5373 25.6659 98.1923 25.6516 97.6173 26.1383Z" fill="white"/>
<path d="M37.9641 26.2528C37.6766 26.5821 36.6128 28.7149 35.6641 30.9337C35.3335 31.678 34.816 32.6371 34.4997 33.0522C34.1691 33.4817 33.9247 33.9683 33.9247 34.1831C33.9247 34.3835 33.8097 34.8129 33.666 35.1278C33.5078 35.4571 33.2635 36.0296 33.1053 36.4304C32.9328 36.8169 32.6453 37.5327 32.4441 38.005C32.2428 38.4774 31.8835 39.3935 31.6247 40.0377C31.136 41.2687 30.8772 41.5264 30.4747 41.1542C30.0866 40.8107 29.8278 40.8966 29.1953 41.5837C28.4335 42.3996 28.4478 42.7288 29.2241 44.7901C29.5835 45.7349 29.9285 46.1357 30.2591 45.9925C30.4891 45.9067 30.8628 44.8617 30.9922 43.9456C31.0497 43.5591 31.3803 42.7575 31.7972 42.0131C32.1853 41.2974 33.1197 39.4937 33.8672 38.005C34.6147 36.502 35.4197 35.0276 35.6497 34.7127C36.0091 34.226 36.0666 34.0113 36.0522 33.3528C36.0378 32.723 36.1528 32.2649 36.6416 31.0625C37.4466 29.0871 37.4753 29.0298 37.8491 29.0871C38.1653 29.13 38.1653 29.173 38.266 32.7802C38.3666 36.1585 38.3378 38.0623 38.151 38.6778C38.0647 38.9927 37.5616 39.0071 37.0297 38.7351C35.966 38.1911 35.0891 39.5081 35.9085 40.4099C36.1528 40.6819 36.7135 40.6819 37.691 40.4385C38.0503 40.3383 38.0791 40.3812 38.1797 40.8823C38.3091 41.598 38.1366 45.0335 37.8922 46.422C37.6478 47.8534 37.4322 48.0968 36.3972 48.0968C35.0603 48.0968 34.126 48.8125 34.9166 49.2419C35.2185 49.3994 39.2291 49.4137 41.9028 49.2563C43.3547 49.1847 43.4841 49.1417 43.4841 48.8841C43.4841 48.5978 43.4266 48.5692 42.176 48.2542C41.8453 48.1683 41.5147 47.9823 41.4572 47.8391C41.1985 47.2952 40.7816 37.5613 40.9972 37.275C41.0691 37.1748 41.3853 37.1462 41.8166 37.1891C42.3916 37.2321 42.5641 37.2034 42.8228 36.9458C43.5416 36.23 42.8803 35.2996 41.7591 35.4427C41.3422 35.5 41.1122 35.4714 41.0403 35.3569C40.9685 35.2567 40.8966 33.6534 40.8535 31.7925C40.8247 29.8315 40.7385 28.3427 40.6522 28.2282C40.566 28.1423 40.2497 28.0565 39.9335 28.0565C38.8266 28.0565 39.1572 27.1976 40.3503 26.9972C40.8822 26.9113 41.8022 26.2671 41.6441 26.0954C41.5866 26.0524 40.8103 26.0095 39.8903 25.9808C38.381 25.9665 38.2085 25.9808 37.9641 26.2528Z" fill="white"/>
<path d="M103.973 28.0135C103.484 28.3427 103.541 28.8723 104.102 29.3161C104.289 29.4735 104.404 29.4735 104.677 29.3304C105.309 29.0012 105.424 28.357 104.907 27.9992C104.519 27.7272 104.375 27.7272 103.973 28.0135Z" fill="white"/>
<path d="M49.5239 28.6863C49.0064 29.2016 48.9345 29.6883 49.2939 30.1893C49.6964 30.7475 50.0558 30.8477 50.5876 30.5615C51.5076 30.1034 51.6801 29.2588 51.0045 28.629C50.5733 28.2425 49.9551 28.2568 49.5239 28.6863Z" fill="white"/>
<path d="M109.102 29.6167C108.886 30.0461 108.929 30.3181 109.26 30.4899C109.49 30.6187 109.633 30.6044 109.907 30.4183C110.323 30.1463 110.338 29.903 109.993 29.5881C109.633 29.2732 109.288 29.2875 109.102 29.6167Z" fill="white"/>
<path d="M123.548 31.9357C123.318 32.0788 122.887 32.2077 122.599 32.2077C122.01 32.2077 119.954 32.6514 119.005 32.9806C118.157 33.2813 117.467 34.0113 116.734 35.3569C116.217 36.3016 116.145 36.545 116.145 37.3752C116.145 38.1768 116.188 38.3629 116.475 38.6206C117.165 39.2647 119.077 38.8639 119.739 37.9335C120.055 37.504 120.141 36.2444 119.897 35.6145C119.724 35.1565 119.954 33.8109 120.256 33.4817C120.457 33.2526 120.716 33.2097 121.622 33.2097C122.7 33.2097 122.772 33.224 123.649 33.8252C124.957 34.7127 125.187 35.1994 125.359 37.4468C125.517 39.4794 125.417 39.8516 124.655 40.0234C124.439 40.0806 124.18 40.1808 124.08 40.2667C123.979 40.3383 123.562 40.4958 123.145 40.596C122.384 40.7821 121.32 41.1256 120.817 41.369C120.659 41.4405 120.084 41.6696 119.523 41.8843C117.424 42.6859 116.375 43.7308 115.929 45.4915C115.742 46.2073 115.742 46.4077 115.929 47.0948C116.102 47.7532 116.274 48.0109 116.993 48.698C118.028 49.6714 118.603 49.8718 120.069 49.7429C122.125 49.5569 123.519 48.9413 124.669 47.6817C124.971 47.3667 125.316 47.0948 125.431 47.0948C125.546 47.0948 125.776 47.3954 125.934 47.7675C126.524 49.1417 127.357 49.7143 128.809 49.7286C129.614 49.7286 129.859 49.6714 130.333 49.3565C131.699 48.4546 132.892 45.4629 132.173 44.7472C131.814 44.4036 131.555 44.6327 131.31 45.4915C130.75 47.4813 130.376 48.0968 129.672 48.0968C128.895 48.0968 128.464 47.1663 128.205 44.876C128.019 43.3157 128.019 43.3157 128.148 40.3669C128.234 38.5919 128.32 37.8333 128.522 37.3179C128.68 36.9458 128.795 36.4304 128.795 36.1728C128.795 35.3712 127.889 34.226 125.92 32.5226C124.799 31.5492 124.324 31.4347 123.548 31.9357ZM125.259 41.2544C125.374 41.4405 125.374 41.5837 125.23 41.7554C125.129 41.8986 124.985 42.1563 124.885 42.3423C124.712 42.6859 124.712 42.6716 125.244 43.9742C125.374 44.2891 125.33 44.5181 124.971 45.4056C124.195 47.3381 123.045 48.3544 121.579 48.3688C120.989 48.3831 120.601 48.0109 120.601 47.4383C120.601 47.1091 120.127 46.5508 119.307 45.9353C118.862 45.606 118.819 45.5058 118.847 44.9046C118.876 44.0315 119.149 43.5448 119.911 42.9149C120.845 42.1563 122.743 41.2258 123.361 41.2258C123.548 41.2258 123.792 41.1542 123.907 41.0827C124.238 40.8679 125.072 40.9825 125.259 41.2544Z" fill="white"/>
<path d="M95.8517 32.2648C94.9317 32.3507 94.098 32.4939 93.9973 32.5941C93.6667 32.9233 93.9686 33.181 94.8742 33.2812C95.4492 33.3527 95.8373 33.4816 95.9955 33.6533C96.4842 34.1543 96.628 36.0439 96.5705 40.9108C96.5273 45.3912 96.5273 45.4628 96.8723 46.4076C97.0592 46.9372 97.3036 47.4525 97.4042 47.5384C97.7492 47.8247 98.1661 47.5384 98.3386 46.9086C98.4248 46.5793 98.6117 46.0211 98.7555 45.6632C99.0573 44.9332 99.2442 44.0457 99.2011 43.516C99.1867 43.3156 99.1436 42.1275 99.1005 40.8679C99.0142 38.463 99.1148 37.8475 99.7761 36.187C99.9342 35.8148 100.049 35.3997 100.049 35.2566C100.049 34.8844 101.329 33.9396 102.148 33.6963C102.967 33.4529 104.002 33.4386 104.879 33.6533C106.029 33.9396 107.265 35.7576 107.539 37.5755C107.625 38.0479 107.668 40.5243 107.639 43.058L107.596 47.6959L107.194 48.0394C106.978 48.2255 106.647 48.383 106.46 48.383C105.957 48.383 105.224 48.6693 105.224 48.884C105.224 49.3564 105.655 49.4423 108.085 49.4423C111.722 49.4566 112.153 49.2705 110.945 48.2398L110.356 47.7245L110.385 42.7144C110.385 39.966 110.442 37.6041 110.485 37.461C110.586 37.1461 109.738 34.5838 109.45 34.3548C109.149 34.0828 109.206 33.639 109.609 33.3241C109.997 33.0235 110.069 32.6513 109.795 32.3793C109.537 32.1217 109.134 32.1646 108.717 32.4939C108.243 32.866 107.625 32.8517 106.805 32.4652C106.331 32.2505 105.785 32.1503 104.75 32.0931C103.542 32.0358 103.226 32.0787 102.479 32.3507C101.501 32.7229 100.092 33.8824 100.02 34.3834C99.963 34.8271 99.7186 34.8414 99.2873 34.4406C98.9711 34.1543 98.8992 33.9539 98.8992 33.4243C98.8992 32.6656 98.4248 32.0501 97.8642 32.0787C97.6773 32.0931 96.7717 32.1789 95.8517 32.2648Z" fill="white"/>
<path d="M142.164 32.1504C140.827 32.2649 140.813 32.2793 140.568 33.5532C140.41 34.3692 140.108 34.7843 139.648 34.7843C139.145 34.7843 139.002 34.4694 139.03 33.4387C139.059 32.3651 138.901 32.1361 138.283 32.2936C138.082 32.3508 137.176 32.4224 136.27 32.4797C134.862 32.5512 134.617 32.5942 134.574 32.8089C134.517 33.0952 134.531 33.0952 135.724 33.1238C136.414 33.1381 136.615 33.1954 136.946 33.5246C137.32 33.8968 137.334 33.954 137.147 34.3835C136.888 35.0276 136.716 40.2954 136.874 42.872C137.061 45.921 136.903 46.5222 135.825 46.9373C135.48 47.0661 134.258 48.6264 134.258 48.9557C134.258 49.2133 134.847 49.3994 135.667 49.3994C142.408 49.3565 143.501 49.3135 143.659 49.0702C143.961 48.5978 143.558 48.4547 141.733 48.4117C140.626 48.3831 139.979 48.2972 139.878 48.1827C139.763 48.0395 139.533 44.9619 139.533 43.5161C139.548 41.5694 139.735 38.6206 139.922 37.5899C140.425 34.7986 140.626 34.2976 141.388 33.7823C142.768 32.8661 143.76 32.6801 144.292 33.2526C144.694 33.6821 144.694 33.7966 144.234 34.226C143.659 34.7557 143.314 35.543 143.314 36.3446C143.314 36.9458 143.386 37.1319 143.788 37.5613C144.047 37.8333 144.435 38.1053 144.651 38.1482C145.183 38.2913 146.275 37.7188 146.822 37.0317C147.238 36.5163 147.267 36.3875 147.267 35.3569C147.267 34.3405 147.224 34.1831 146.836 33.6248C146.592 33.2813 146.074 32.8089 145.686 32.5655C145.082 32.1934 144.838 32.1361 143.903 32.1218C143.3 32.1075 142.523 32.1218 142.164 32.1504Z" fill="white"/>
<path d="M52.092 32.4224C51.6032 32.5226 50.8701 32.7803 50.4676 32.995C50.0507 33.1954 49.332 33.4387 48.8576 33.5246C48.3976 33.5962 47.952 33.7393 47.8801 33.8395C47.7939 33.9397 47.7076 34.7557 47.6932 35.6575C47.6501 37.0317 47.6932 37.3609 47.9089 37.6901C48.297 38.2913 48.8289 38.5633 49.6051 38.5633C50.1801 38.5633 50.3814 38.4917 50.7407 38.1482C51.287 37.6186 51.5026 36.9028 51.3157 36.2014C51.2295 35.9151 51.0714 35.6002 50.942 35.4857C50.5539 35.1708 50.3382 34.5982 50.4676 34.2547C50.5251 34.0829 50.8557 33.7966 51.2007 33.6105C52.0776 33.1524 54.277 33.1381 55.1251 33.5962C56.1314 34.1258 56.577 34.8702 56.7207 36.3303C56.807 37.1462 56.807 37.1462 56.2032 37.776C55.6282 38.3629 55.5995 38.4345 55.657 39.093C55.7289 39.7228 55.6857 39.823 55.2401 40.2381C54.5214 40.9538 54.5932 41.1256 55.5995 41.0111C56.3039 40.9252 56.462 40.9538 56.6776 41.1972C57.2239 41.7841 57.0945 44.1889 56.462 45.6204C55.887 46.923 55.312 47.5528 54.0182 48.2972C53.4576 48.6264 53.2276 48.6837 52.7964 48.5978C51.9482 48.4403 51.0282 47.925 50.5539 47.3381C50.1657 46.8657 50.1082 46.6797 50.0507 45.6204C49.9932 44.5038 50.022 44.418 50.4245 43.8024C50.6832 43.4303 51.3014 42.8577 51.9195 42.4426C54.0614 40.9682 52.6526 40.8393 50.0795 42.2565C49.0876 42.8004 47.8801 44.0315 47.5639 44.8045C47.4201 45.1766 47.3051 45.8351 47.3051 46.3504C47.2907 47.4813 47.6501 48.2256 48.4839 48.8268C49.0301 49.2276 49.1739 49.2563 50.1657 49.242C50.7551 49.2276 51.7757 49.2563 52.4082 49.3135C53.4432 49.4137 53.6589 49.3851 54.2051 49.1274C54.8951 48.7982 55.772 48.0252 56.347 47.2522C56.6776 46.8371 56.7639 46.7942 57.0226 46.923C57.1807 47.0089 57.3532 47.2809 57.3964 47.5099C57.8564 49.7716 60.9757 50.4014 62.6576 48.5835C63.0745 48.1397 63.247 47.8391 63.247 47.5242C63.247 46.923 62.9307 46.9803 62.3845 47.6674C61.5507 48.7266 60.7601 48.8841 60.0557 48.1397L59.7251 47.7819V42.1133V36.4305L59.0639 35.1851C58.6901 34.498 58.2876 33.8109 58.1726 33.6391C57.3389 32.451 54.5214 31.8928 52.092 32.4224Z" fill="white"/>
<path d="M70.4341 32.408C68.2922 33.1953 66.9122 34.5838 66.4953 36.3445C66.3084 37.1604 66.3084 37.3608 66.5241 38.3772C66.7109 39.3076 66.7253 39.6225 66.5816 40.1379C66.4522 40.6675 66.4522 40.8822 66.6247 41.3832C66.9266 42.2135 66.8978 42.5427 66.4522 43.6306C66.1072 44.4322 66.0497 44.8044 66.0497 45.8923V47.2092L66.6391 47.8963C66.9553 48.2828 67.2716 48.6836 67.3291 48.7838C67.5303 49.1131 67.2572 49.5282 66.4809 50.0292C65.6328 50.5875 65.1153 51.203 64.7703 52.0189C64.4828 52.706 64.4828 53.0782 64.7703 54.2377C65.4891 57.0719 67.9328 58.1885 73.2659 58.1312C77.3916 58.0883 79.8353 56.8429 80.6834 54.3236C80.9853 53.4647 80.9853 53.0209 80.6978 51.5179C80.4822 50.3441 80.1947 49.7143 79.5334 48.9127C79.3466 48.6836 79.2028 48.3973 79.2028 48.2685C79.2028 48.1397 79.1309 47.7818 79.0447 47.4812C78.9297 47.0661 78.8291 46.9516 78.5703 46.9516C78.3834 46.9516 78.1534 47.0518 78.0528 47.1806C77.6216 47.6816 77.3916 47.6816 76.0978 47.1663C75.0053 46.7225 74.7034 46.6653 73.7547 46.6796C72.6191 46.7082 70.1609 46.4649 69.2697 46.2215C68.6372 46.0641 67.9903 45.5774 67.9903 45.2768C67.9903 45.1623 68.1628 44.8473 68.3928 44.5897C68.6084 44.3463 68.8959 43.9312 69.0253 43.6736C69.1547 43.4302 69.4278 43.1725 69.6291 43.101C69.8159 43.0151 71.3541 42.9435 73.0503 42.9292C74.7322 42.9149 76.2847 42.8433 76.5003 42.7717C76.8884 42.6286 77.4922 41.8556 77.6791 41.2544C77.7509 41.0683 78.0241 40.4528 78.3116 39.8945C78.8003 38.9211 78.8291 38.7923 78.8291 37.4181C78.8434 36.0439 78.8147 35.9008 78.3403 34.9417C77.9522 34.1401 77.8803 33.8538 77.9953 33.6677C78.2684 33.2383 78.8003 33.1094 79.9647 33.181L81.0716 33.2383V33.6963C81.0716 34.1544 81.5459 34.7842 81.9053 34.7842C81.9916 34.7842 82.3509 34.4836 82.6959 34.1258C83.2278 33.5675 83.4434 33.453 84.0041 33.3957C84.6078 33.3242 84.6941 33.3528 85.1541 33.8108L85.6428 34.2975L85.7003 41.1685C85.7434 46.608 85.7147 48.0967 85.5709 48.3401C85.4128 48.6121 85.2403 48.6693 84.4209 48.6979C83.6591 48.7266 83.4434 48.7838 83.4434 48.9556C83.4434 49.385 89.9553 49.428 90.0847 48.9986C90.1278 48.884 89.8978 48.7552 89.4953 48.655C89.1359 48.5691 88.7622 48.3973 88.6616 48.2828C88.4028 47.9536 88.2878 39.0643 88.4891 34.5266C88.6041 32.2076 88.5609 32.1217 87.3966 32.2792C86.9653 32.3365 85.8297 32.4223 84.8809 32.4796C83.5728 32.5369 83.0697 32.6227 82.7966 32.8088C82.3222 33.1524 81.2441 33.1524 80.9997 32.8231C80.8416 32.6084 80.4678 32.5655 78.2253 32.5369C74.7466 32.4653 74.4591 32.6084 75.3216 33.8538C75.5516 34.183 75.8247 34.7699 75.9253 35.1421C76.0978 35.7576 76.0834 35.8292 75.8247 36.0153C75.6809 36.1298 75.3791 36.2157 75.1778 36.2157C74.7034 36.2157 74.1716 36.7596 74.1716 37.2463C74.1716 37.6758 74.9047 38.2197 75.4941 38.2197C76.0978 38.2197 76.2559 38.5346 76.0403 39.2933C75.5228 41.1113 73.4384 42.3423 71.5409 41.9415C70.6784 41.7697 69.9884 41.2687 69.3416 40.3526C68.9247 39.7514 68.9247 39.7371 68.9247 37.6615C68.9247 36.5163 68.9822 35.3425 69.0397 35.0562C69.1691 34.4264 69.9741 33.6104 70.8797 33.1524C71.6128 32.7802 71.8572 32.1933 71.2678 32.2219C71.0809 32.2219 70.7072 32.3078 70.4341 32.408ZM76.3566 49.5139C77.2047 49.7715 77.5928 49.9863 78.0528 50.43C78.7572 51.1314 78.8147 51.3318 78.7428 52.8492C78.6997 53.8941 78.6422 54.1088 78.2397 54.6814C77.5353 55.6977 76.5434 56.3705 74.9478 56.9145C73.9847 57.258 73.7116 57.2867 72.1878 57.2294C70.7791 57.1865 70.4053 57.1149 69.8591 56.8429C68.0909 55.9268 67.5591 55.1252 67.4441 53.2356C67.3866 52.205 67.4297 51.8758 67.6884 51.16C68.4072 49.2562 69.2984 48.927 73.3809 49.1131C74.7466 49.1703 75.5516 49.2705 76.3566 49.5139Z" fill="white"/>
<path d="M154.615 32.3365C153.81 32.5082 154.069 33.0236 154.975 33.0808C155.55 33.1238 155.823 32.9949 155.823 32.6943C155.823 32.5369 155.19 32.1361 155.061 32.2219C155.047 32.2363 154.845 32.2792 154.615 32.3365Z" fill="white"/>
<path d="M160.179 32.3651C159.892 32.6657 159.963 33.0522 160.323 33.1381C160.495 33.181 160.998 33.224 161.43 33.2383C162.652 33.2955 162.652 33.2955 160.639 38.005C159.676 40.2667 159.331 41.1542 158.986 42.3709C158.813 42.9578 158.583 43.6593 158.468 43.9026C158.066 44.8474 157.433 44.3464 156.772 42.557C156.499 41.8413 155.895 40.4528 155.421 39.4794C154.961 38.506 154.458 37.4324 154.328 37.0746C154.185 36.7167 153.983 36.23 153.883 36.001C153.006 33.9254 152.905 33.5818 153.063 33.181C153.308 32.5369 152.891 32.3508 151.18 32.3508C150.002 32.3508 149.757 32.3937 149.685 32.5941C149.628 32.7516 149.728 32.952 150.045 33.1953C150.332 33.453 150.634 33.954 150.936 34.7127C151.482 36.1298 151.842 36.8599 152.302 37.4897C152.503 37.7617 152.661 38.1768 152.661 38.4201C152.661 38.6635 152.79 39.3076 152.934 39.8659C153.207 40.8822 153.408 41.3832 154.228 43.101C154.472 43.6163 154.673 44.1316 154.673 44.2175C154.673 44.3177 154.774 44.5754 154.875 44.7758C155.522 45.9639 156.398 48.4117 156.398 49.0558C156.398 49.3135 156.269 49.8431 156.111 50.2439C155.953 50.6447 155.823 51.1314 155.823 51.3175C155.823 51.5036 155.651 52.1335 155.45 52.706C154.788 54.524 154.098 55.7837 153.337 56.5423C152.675 57.2008 152.575 57.258 151.913 57.258C151.525 57.258 151.08 57.1865 150.922 57.1149C150.519 56.9002 150.577 56.3133 151.051 55.8695C151.267 55.6691 151.612 55.3399 151.827 55.1395C152.057 54.9248 152.258 54.5669 152.302 54.2663C152.345 53.98 152.575 53.3788 152.805 52.9351C153.322 51.9474 153.337 51.6181 152.877 51.1744C152.316 50.6018 151.755 50.6877 151.051 51.4607C150.72 51.8185 150.404 52.1048 150.332 52.1048C150.26 52.1048 149.944 52.2766 149.628 52.4913C148.923 52.9494 148.492 53.751 148.492 54.5669C148.507 55.3828 149.283 56.9002 149.987 57.4585C150.49 57.8736 150.605 57.9022 151.612 57.8736C153.452 57.8449 154.343 57.0576 155.78 54.2234C156.887 52.0189 157.362 50.9453 157.606 49.9576C157.735 49.4566 158.008 48.6693 158.21 48.1826C158.411 47.7103 158.756 46.7082 159 45.9639C159.23 45.2339 159.791 43.8167 160.265 42.8147C161.2 40.7964 161.372 40.3812 161.502 39.6512C161.559 39.3792 162.019 37.8905 162.537 36.3589C163.212 34.3262 163.557 33.4816 163.816 33.2812C164.218 32.9377 164.262 32.5655 163.917 32.4224C163.773 32.3651 162.91 32.2935 162.005 32.2506C160.754 32.1933 160.308 32.222 160.179 32.3651Z" fill="white"/>
<path d="M147.814 32.5798C147.699 32.8804 148.001 33.181 148.217 32.9663C148.404 32.7802 148.289 32.3508 148.059 32.3508C147.972 32.3508 147.872 32.451 147.814 32.5798Z" fill="white"/>
<path d="M20.9269 40.0806C20.6969 41.1399 20.5675 43.1439 20.5819 45.2768L20.5963 47.6816L20.1938 48.0967C19.8631 48.4403 19.6619 48.5262 19.1731 48.5262C18.44 48.5262 18.1094 48.6407 18.1094 48.884C18.1094 49.1846 18.3969 49.2276 20.51 49.2562C25.1819 49.3278 25.1819 49.3278 25.3544 49.0558C25.6275 48.612 25.11 48.383 23.8738 48.383C22.9538 48.383 22.7094 48.3258 22.3788 48.0538C22.0194 47.7818 21.9619 47.61 21.8613 46.5937C21.7894 45.9352 21.8038 45.0191 21.89 44.4465C22.0913 42.9721 21.9331 40.9824 21.5881 40.5959C21.43 40.4385 21.2431 40.1665 21.1569 40.009C21.0131 39.737 20.9988 39.737 20.9269 40.0806Z" fill="white"/>
<path d="M129.902 40.9108C129.528 41.326 129.585 41.7697 130.045 41.8842C130.778 42.0703 131.195 41.4691 130.678 40.9538C130.304 40.5816 130.203 40.5816 129.902 40.9108Z" fill="white"/>
<path d="M151.024 41.0969C150.535 41.4834 150.506 42.1991 150.981 42.6286C151.383 43.0008 151.757 43.0294 152.203 42.7145C152.677 42.3852 152.806 41.9415 152.576 41.4834C152.203 40.7677 151.628 40.6245 151.024 41.0969Z" fill="white"/>
<path d="M94.0078 48.9556C94.0078 49.0272 94.1084 49.0988 94.2234 49.0988C94.3384 49.0988 94.4391 49.0272 94.4391 48.9556C94.4391 48.8697 94.3384 48.8125 94.2234 48.8125C94.1084 48.8125 94.0078 48.8697 94.0078 48.9556Z" fill="white"/>
</g>
</svg>
