<svg width="192" height="30" viewBox="0 0 192 30" fill="none" xmlns="http://www.w3.org/2000/svg">
<g opacity="0.4">
<path d="M39.126 6.01794C41.0659 6.01686 42.9504 6.68226 44.4775 7.90857C46.0046 9.13481 47.0862 10.8507 47.5498 12.7816C47.9024 14.1854 47.9023 15.6581 47.5498 17.0619C47.0883 18.9943 46.0081 20.7125 44.4814 21.9408C42.9547 23.169 41.0696 23.8372 39.1289 23.8373C37.1881 23.8373 35.3032 23.169 33.7764 21.9408C32.2495 20.7125 31.1686 18.9945 30.707 17.0619C30.3545 15.6581 30.3545 14.1854 30.707 12.7816C31.1704 10.8516 32.2514 9.13666 33.7773 7.91052C35.3035 6.68433 37.1869 6.01795 39.126 6.01794ZM85.6934 5.99255C87.2703 5.99265 88.8171 6.43663 90.165 7.27576C90.7755 7.64237 91.3369 8.08876 91.835 8.60388C92.3389 9.10693 92.774 9.6784 93.127 10.3021L89.9824 13.5111L88.6455 14.9144L85.6973 17.9369L84.3281 19.3402C84.5452 19.4134 84.7689 19.4668 84.9951 19.4994C85.1866 19.5306 85.3803 19.5464 85.5742 19.5463H85.6787C85.9066 19.5493 86.1349 19.53 86.3594 19.4896H86.3867C86.6093 19.4538 86.8292 19.4005 87.0439 19.3304C87.3311 19.2322 87.6077 19.1042 87.8691 18.9476L88.1064 18.8021C88.383 18.6253 88.6419 18.4203 88.8779 18.1898L90.3525 16.6781L93.2998 19.7054L91.8262 21.2162C91.6327 21.4176 91.4285 21.6079 91.2148 21.7865C91.1512 21.8359 91.0901 21.8893 91.0322 21.9457C90.8498 22.0859 90.6717 22.2169 90.4756 22.3431C90.3792 22.4183 90.2767 22.4857 90.1699 22.5443L90.0693 22.601C89.9349 22.6944 89.7925 22.7756 89.6445 22.8441C89.5489 22.8955 89.5209 22.9 89.3613 22.9701C89.2017 23.0402 89.0558 23.1105 88.9053 23.1713H88.8828C88.6444 23.283 88.397 23.3739 88.1436 23.4427H88.0615L87.833 23.5033C87.7555 23.522 87.6781 23.5647 87.6006 23.5648C87.5415 23.5857 87.4801 23.5997 87.418 23.6068C87.2948 23.6349 87.1802 23.6625 87.0615 23.6625L86.6514 23.723C86.5911 23.735 86.53 23.7429 86.4688 23.7465C86.205 23.7748 85.94 23.7887 85.6748 23.7885C85.4051 23.7887 85.1355 23.7747 84.8672 23.7465L84.6338 23.7191L84.4238 23.6908C84.2699 23.6757 84.1172 23.6477 83.9678 23.6068L83.7715 23.5648L83.5303 23.4984L83.3154 23.4427H83.2285C82.9751 23.3738 82.7278 23.2828 82.4893 23.1713H82.4619C82.2977 23.1105 82.1017 23.0169 82.0059 22.9701C81.91 22.9233 81.8185 22.8954 81.7227 22.8392C81.5763 22.7705 81.4357 22.6892 81.3027 22.5961L81.1934 22.5394C81.0866 22.4807 80.9843 22.4133 80.8877 22.3383C80.6915 22.212 80.5135 22.0811 80.3311 21.9408C80.2732 21.8844 80.2121 21.8311 80.1484 21.7816C79.9347 21.603 79.7306 21.4127 79.5371 21.2113C79.3547 21.0243 79.1902 20.842 79.0215 20.641C78.9667 20.5708 78.9161 20.4953 78.8613 20.4252L78.8018 20.351C78.5978 20.0841 78.4153 19.8007 78.2549 19.5043C78.0385 19.1097 77.8523 18.698 77.6982 18.2738C77.6491 18.1691 77.6062 18.0608 77.5703 17.9506C77.5202 17.868 77.4876 17.7754 77.4746 17.6791L77.3877 17.3754C77.246 16.8833 77.1464 16.3794 77.0908 15.8695C77.0803 15.8122 77.0731 15.7537 77.0684 15.6957C77.0121 15.1547 77.0121 14.6088 77.0684 14.0677C77.0731 14.0098 77.0804 13.952 77.0908 13.8949C77.1465 13.385 77.246 12.8812 77.3877 12.389L77.4746 12.0844C77.4876 11.9881 77.5202 11.8953 77.5703 11.8129C77.6058 11.7026 77.6488 11.595 77.6982 11.4906C77.8632 11.0799 78.0583 10.6824 78.2822 10.3021C78.4427 10.0056 78.6262 9.72242 78.8301 9.45544L78.8848 9.38025C78.9394 9.31022 78.9896 9.23541 79.0488 9.16541C79.2176 8.96434 79.382 8.78214 79.5645 8.59509L79.9521 8.2113C80.3474 7.8619 80.7719 7.54882 81.2207 7.27576C82.5687 6.43655 84.1162 5.99255 85.6934 5.99255ZM21.2695 6.02771C23.157 6.02473 24.992 6.66767 26.4824 7.85486C27.9728 9.04206 29.0335 10.7058 29.4971 12.5814C29.6773 13.2788 29.7672 13.9978 29.7627 14.7191V23.4388H25.5908V14.7191C25.5907 13.5474 25.1373 12.4236 24.3291 11.5951C23.5208 10.7665 22.4243 10.3012 21.2813 10.3011C20.1381 10.3011 19.0417 10.7665 18.2334 11.5951C17.4252 12.4236 16.9708 13.5474 16.9707 14.7191V23.4486H12.7998V14.6918C12.76 13.5436 12.2862 12.4561 11.4785 11.6595C10.6709 10.8632 9.5932 10.4197 8.47266 10.4232C7.35195 10.4269 6.27635 10.8774 5.47363 11.6791C4.67099 12.4807 4.20369 13.5708 4.1709 14.7191V23.4437H4.34016e-10V14.724C-7.35814e-06 14.0019 0.0935565 13.2831 0.27832 12.5863C0.658021 11.0491 1.44144 9.64778 2.54297 8.53455C3.64432 7.42156 5.02193 6.6392 6.52637 6.27185C8.03105 5.90455 9.60544 5.96676 11.0781 6.45154C12.5509 6.93637 13.8661 7.8251 14.8809 9.02185C15.674 8.08238 16.6555 7.32846 17.7578 6.81189C18.86 6.29542 20.0577 6.02798 21.2695 6.02771ZM70.502 0.00134277V6.41052H77.0225V10.6859H70.502V14.6205C70.5008 15.8255 70.966 16.9819 71.7959 17.8353C72.6258 18.6886 73.7523 19.1696 74.9277 19.1722H77.0225V23.4476H74.9375C73.0197 23.4463 71.1571 22.7877 69.6465 21.5765C68.1359 20.3653 67.0629 18.6708 66.5996 16.7631C66.4192 16.0656 66.3303 15.3459 66.335 14.6244V0.00134277H70.502ZM57.2021 6.02771C59.0933 6.02483 60.9318 6.66988 62.4248 7.85974C63.9177 9.04958 64.9807 10.7167 65.4443 12.5961C65.629 13.2927 65.7227 14.0118 65.7227 14.7338V23.4388H61.5518V14.7338C61.5518 13.5551 61.0943 12.4246 60.2813 11.5912C59.4683 10.7578 58.3655 10.2894 57.2158 10.2894C56.0662 10.2895 54.9633 10.7578 54.1504 11.5912C53.3375 12.4246 52.8809 13.5552 52.8809 14.7338V23.4203H48.71V14.7152C48.7099 13.9931 48.8035 13.2734 48.9883 12.5765C49.4514 10.7037 50.5113 9.04297 51.999 7.85681C53.4867 6.67075 55.3175 6.02686 57.2021 6.02771ZM40.8516 10.6547C40.0279 10.3049 39.1215 10.2128 38.2471 10.391C37.3725 10.5693 36.569 11.0102 35.9385 11.6566C35.3079 12.303 34.8781 13.1263 34.7041 14.0228C34.5302 14.9192 34.6198 15.8483 34.9609 16.6927C35.3021 17.5372 35.8798 18.2591 36.6211 18.767C37.3625 19.2748 38.2343 19.5462 39.126 19.5463C39.718 19.5463 40.3046 19.427 40.8516 19.1947C41.3986 18.9624 41.8958 18.6219 42.3145 18.1927C42.7331 17.7636 43.0654 17.2535 43.292 16.6927C43.5184 16.1321 43.6348 15.531 43.6348 14.9242C43.6347 14.0102 43.3703 13.1168 42.875 12.3568C42.3796 11.5968 41.6753 11.0045 40.8516 10.6547ZM86.998 10.5453C86.2145 10.294 85.3783 10.2679 84.5811 10.4691C83.784 10.6704 83.0557 11.0915 82.4756 11.6869C82.2382 11.9335 82.0287 12.207 81.8506 12.5013L81.7734 12.6224C81.6002 12.9167 81.46 13.2307 81.3574 13.558C81.0928 14.4612 81.0928 15.4243 81.3574 16.3275L82.7266 14.9242L85.6611 11.9486L86.998 10.5453Z" fill="white"/>
<path d="M182.754 7.3118C183.905 7.30157 185.047 7.53279 186.108 7.99051C187.112 8.42085 187.988 9.11267 188.65 9.99735V7.46707H191.388L191.425 7.47098V21.6038C191.425 24.4633 190.733 26.5775 189.349 27.9466C187.964 29.3157 185.897 30.0003 183.146 30.0003C181.69 30.0073 180.24 29.7942 178.844 29.3684C177.622 29.0261 176.49 28.4093 175.53 27.5628L176.899 25.2805C177.706 25.9758 178.636 26.5047 179.638 26.8382C180.728 27.2181 181.872 27.4105 183.023 27.4085C184.888 27.4085 186.268 26.9564 187.162 26.052C188.056 25.1477 188.504 23.7696 188.504 21.9173V20.6214C187.832 21.4578 186.968 22.1107 185.989 22.5208C184.962 22.9487 183.862 23.1629 182.754 23.1516C181.315 23.1733 179.893 22.8295 178.615 22.1507C177.41 21.5114 176.403 20.5392 175.708 19.344C175.02 18.0859 174.658 16.6673 174.658 15.2249C174.658 13.7824 175.02 12.3638 175.708 11.1057C176.398 9.90715 177.407 8.93401 178.615 8.2991C179.896 7.62966 181.317 7.29059 182.754 7.3118ZM114.583 16.5413C114.583 18.1255 114.954 19.3232 115.696 20.1341C116.439 20.9449 117.503 21.3516 118.891 21.3548C119.555 21.3927 120.22 21.2879 120.843 21.0462C121.465 20.8045 122.032 20.4312 122.505 19.9514C123.387 19.0159 123.828 17.6778 123.828 15.9378V7.47098H126.676V23.844H123.938V21.3743C123.356 22.2195 122.57 22.8952 121.656 23.3343C120.681 23.8015 119.615 24.0382 118.539 24.0266C116.41 24.0266 114.736 23.4246 113.52 22.221C112.303 21.0172 111.694 19.242 111.694 16.8968V7.47098H114.583V16.5413ZM104.506 7.47098H109.069V9.90848H104.506V18.7639C104.458 19.5023 104.69 20.2309 105.153 20.7981C105.395 21.0445 105.684 21.2363 106.003 21.3597C106.321 21.483 106.662 21.5353 107.002 21.5139C107.82 21.5367 108.62 21.2638 109.261 20.7425L110.164 22.8714C109.705 23.2613 109.172 23.5497 108.599 23.718C107.975 23.914 107.325 24.0126 106.673 24.012C105.067 24.012 103.823 23.5694 102.94 22.6839C102.058 21.7982 101.617 20.5335 101.617 18.8899V9.90848H98.9062V7.47098H101.617V3.89285H104.506V7.47098ZM139.306 7.32157C141.329 7.31848 142.938 7.91858 144.134 9.12235C145.326 10.3261 145.922 12.09 145.922 14.4134V23.8255H143.052V14.7776C143.052 13.1936 142.681 12.0009 141.938 11.1995C141.196 10.398 140.131 9.99735 138.744 9.99735C138.067 9.96011 137.388 10.0656 136.752 10.3069C136.116 10.5483 135.534 10.9204 135.043 11.4007C134.13 12.3362 133.674 13.6787 133.674 15.428V23.8489H130.786V7.47586H133.556V9.94559C134.155 9.08713 134.973 8.41362 135.92 7.9993C136.989 7.53153 138.143 7.30081 139.306 7.32157ZM152.705 23.8489H149.816V7.47586H152.705V23.8489ZM165.313 7.32157C167.355 7.31845 168.973 7.91865 170.169 9.12235C171.362 10.3261 171.958 12.09 171.958 14.4134V23.8255H169.061V14.7776C169.06 13.1937 168.689 12.0009 167.947 11.1995C167.205 10.3981 166.14 9.99743 164.753 9.99735C164.075 9.9601 163.397 10.0656 162.761 10.3069C162.124 10.5483 161.543 10.9203 161.052 11.4007C160.139 12.3362 159.683 13.6786 159.683 15.428V23.8489H156.794V7.47586H159.563V9.94559C160.163 9.08709 160.981 8.41364 161.928 7.9993C162.997 7.53145 164.151 7.30086 165.313 7.32157ZM183.122 9.91239C181.676 9.91239 180.275 10.4305 179.163 11.3772C178.655 11.8679 178.255 12.4648 177.99 13.1272C177.726 13.7897 177.603 14.5028 177.63 15.218C177.615 16.187 177.859 17.1415 178.337 17.9778C178.803 18.7863 179.482 19.4446 180.295 19.8772C181.173 20.3406 182.15 20.5741 183.138 20.5559C184.104 20.5653 185.058 20.332 185.917 19.8772H185.948C186.761 19.4441 187.44 18.786 187.906 17.9778C188.384 17.1414 188.628 16.187 188.613 15.218C188.64 14.5028 188.518 13.7897 188.254 13.1272C187.989 12.4647 187.589 11.8678 187.08 11.3772C185.968 10.4306 184.568 9.91249 183.122 9.91239ZM151.263 0.472933C151.781 0.455096 152.284 0.648828 152.663 1.01102C152.843 1.18152 152.987 1.38989 153.083 1.62137C153.179 1.85273 153.226 2.10248 153.221 2.35379C153.226 2.61422 153.18 2.87323 153.084 3.11453C152.988 3.35589 152.844 3.57453 152.663 3.75711C152.48 3.94514 152.261 4.0926 152.021 4.19071C151.78 4.28884 151.522 4.3354 151.263 4.32742C151.005 4.33562 150.748 4.29122 150.507 4.19559C150.266 4.09996 150.047 3.95508 149.861 3.77078C149.682 3.59692 149.539 3.3861 149.443 3.15262C149.348 2.91912 149.3 2.6676 149.305 2.41434C149.301 2.15906 149.35 1.90588 149.445 1.6702C149.541 1.43465 149.682 1.22158 149.861 1.04422C150.044 0.856063 150.264 0.707807 150.505 0.609652C150.746 0.511606 151.004 0.464951 151.263 0.472933Z" fill="white"/>
</g>
</svg>
