<svg width="137" height="40" viewBox="0 0 137 40" fill="none" xmlns="http://www.w3.org/2000/svg">
<g opacity="0.3" clip-path="url(#clip0_1100_3463)">
<path d="M15.2255 31.0685H11.8623L0 20.8447L3.31778 17.187L13.5438 25.9565L23.7699 17.187L27.0878 20.8447L15.2255 31.0685Z" fill="white"/>
<path fill-rule="evenodd" clip-rule="evenodd" d="M14.3614 0.000732422H12.6797V30.4517H14.3614V0.000732422Z" fill="white"/>
<path fill-rule="evenodd" clip-rule="evenodd" d="M22.9992 31.0686H4.04688V32.699H22.9992V31.0686Z" fill="white"/>
<path d="M25.0399 30.584C23.631 29.8789 22.5402 28.9094 21.7676 27.7195C20.995 26.4856 20.5859 25.0755 20.5859 23.5331C20.5859 21.9908 20.995 20.5805 21.7676 19.3466C22.5402 18.1127 23.631 17.1874 25.0399 16.4822C26.4489 15.8213 28.0396 15.4686 29.8122 15.4686C31.6301 15.4686 33.2208 15.8653 34.5388 16.6144C35.8569 17.3636 36.8113 18.4213 37.3567 19.7873L32.9936 21.9467C32.2664 20.5364 31.1756 19.8314 29.7667 19.8314C28.7668 19.8314 27.9033 20.1399 27.267 20.8009C26.5853 21.4619 26.2671 22.3433 26.2671 23.5331C26.2671 24.723 26.5853 25.6043 27.267 26.3094C27.9487 26.9704 28.7668 27.323 29.7667 27.323C31.1756 27.323 32.2664 26.6178 32.9936 25.2077L37.3567 27.367C36.8113 28.7331 35.8569 29.7467 34.5388 30.5399C33.2208 31.289 31.6301 31.6857 29.8122 31.6857C28.0396 31.5976 26.4489 31.245 25.0399 30.584Z" fill="white"/>
<path d="M43.7164 25.7807H41.8076V31.3332H36.1719V15.6891H41.8076V21.462H43.8528L47.8068 15.6891H53.8062L48.3977 23.1807L54.1697 31.3332H47.4887L43.7164 25.7807Z" fill="white"/>
<path d="M69.1747 15.6889V31.333H63.539V20.0516H60.1758L59.903 22.4313C59.6758 24.4585 59.4031 26.133 58.9486 27.4991C58.5396 28.8211 57.9033 29.8788 57.0852 30.5839C56.2672 31.333 55.1764 31.6855 53.8129 31.6855C53.1312 31.6855 52.2221 31.5533 51.0859 31.2889L51.5858 26.8381C51.9495 26.8822 52.1767 26.8822 52.313 26.8822C52.9493 26.8822 53.4038 26.7058 53.7675 26.3093C54.0855 25.9127 54.3582 25.4279 54.5401 24.7669C54.6764 24.1058 54.8127 23.2686 54.949 22.1669L55.5853 15.6448H69.1747V15.6889Z" fill="white"/>
<path d="M82.0388 17.2314C83.4478 18.4212 84.1295 20.228 84.1295 22.6517V31.3331H78.8574V29.306C78.0393 30.8043 76.4486 31.5976 74.0853 31.5976C72.8581 31.5976 71.7673 31.3771 70.8584 30.9806C69.9493 30.5399 69.2676 29.967 68.7676 29.262C68.3132 28.5568 68.0859 27.7195 68.0859 26.7942C68.0859 25.2958 68.6767 24.1501 69.8584 23.3568C71.0401 22.5195 72.8127 22.1229 75.267 22.1229H78.4938C78.4029 20.4483 77.2667 19.6551 75.0851 19.6551C74.3125 19.6551 73.5399 19.7873 72.7218 20.0076C71.9492 20.228 71.2674 20.5806 70.6765 21.0212L68.7676 17.3195C69.6767 16.7466 70.7675 16.3059 72.0401 15.9975C73.3126 15.689 74.5852 15.5127 75.9032 15.5127C78.5847 15.4246 80.6299 16.0416 82.0388 17.2314ZM77.403 27.6754C77.903 27.367 78.2665 26.9263 78.4938 26.3093V24.9433H76.0396C74.4033 24.9433 73.5853 25.4721 73.5853 26.5297C73.5853 27.0145 73.7671 27.4111 74.1307 27.6754C74.4942 27.984 75.0396 28.1162 75.6759 28.1162C76.3577 28.1602 76.9031 27.984 77.403 27.6754Z" fill="white"/>
<path d="M103.306 26.9706V34.5943H98.0791V31.3773H87.9439V34.5943H82.6719V26.9706H83.2627C84.2171 26.9706 84.8988 26.4417 85.3079 25.4281C85.6714 24.4146 85.8988 23.0044 85.9896 21.1536L86.2168 15.6891H101.079V26.9265H103.306V26.9706ZM90.7163 24.9434C90.5346 25.7807 90.2619 26.4417 89.8074 26.9706H95.3976V20.0959H91.08L91.0345 21.5942C90.9891 22.9603 90.8982 24.1061 90.7163 24.9434Z" fill="white"/>
<path d="M102.945 15.6891H108.582V21.5061H113.444V15.6891H119.08V31.3332H113.444V25.8689H108.582V31.3332H102.945V15.6891Z" fill="white"/>
<path d="M122.485 30.5841C121.077 29.879 120.031 28.9095 119.213 27.7196C118.44 26.4857 118.031 25.0756 118.031 23.5332C118.031 21.9909 118.44 20.6247 119.213 19.3908C119.986 18.1569 121.077 17.1875 122.44 16.5264C123.803 15.8653 125.394 15.5128 127.122 15.5128C128.848 15.5128 130.439 15.8653 131.803 16.5264C133.211 17.1875 134.257 18.1569 135.03 19.3908C135.802 20.6247 136.211 21.9909 136.211 23.5773C136.211 25.1196 135.802 26.5298 135.03 27.7637C134.257 28.9976 133.166 29.9671 131.803 30.6282C130.394 31.3332 128.848 31.6857 127.122 31.6857C125.44 31.5976 123.895 31.2451 122.485 30.5841ZM129.621 26.2654C130.257 25.6045 130.576 24.679 130.576 23.4892C130.576 22.3434 130.257 21.4179 129.621 20.757C128.984 20.0959 128.166 19.7875 127.167 19.7875C126.167 19.7875 125.349 20.0959 124.712 20.757C124.076 21.4179 123.758 22.2993 123.758 23.4892C123.758 24.679 124.076 25.5603 124.712 26.2654C125.349 26.9265 126.167 27.279 127.167 27.279C128.166 27.2349 128.984 26.9265 129.621 26.2654Z" fill="white"/>
</g>
<defs>
<clipPath id="clip0_1100_3463">
<rect width="136.211" height="40" fill="white"/>
</clipPath>
</defs>
</svg>
