<svg width="90" height="22" viewBox="0 0 90 22" fill="none" xmlns="http://www.w3.org/2000/svg">
<g clip-path="url(#clip0_1100_3393)">
<path d="M52.9312 5.73183C55.0013 5.73183 56.5494 6.37743 57.5757 7.66859C58.6194 8.95984 59.1413 11.0449 59.1413 13.9239V20.7597C59.1413 20.8583 59.0616 20.9382 58.9633 20.9382H56.0578C55.9594 20.9382 55.8797 20.8583 55.8797 20.7597V13.9239C55.8797 12.2663 55.5666 11.0449 54.9404 10.2597C54.3142 9.47457 53.3313 9.08198 51.9919 9.08198C50.6177 9.08198 49.5305 9.55308 48.7302 10.4953C47.9301 11.42 47.53 12.7548 47.53 14.4997V20.7597C47.53 20.8583 47.4503 20.9382 47.352 20.9382H44.3681C44.2698 20.9382 44.1902 20.8583 44.1902 20.7597V6.13751C44.1902 6.13028 44.1843 6.12443 44.1771 6.12443C44.1699 6.12443 44.1641 6.11856 44.1641 6.11133V0.178556C44.1641 0.0799419 44.2437 0 44.342 0H47.299C47.3974 0 47.4771 0.0799867 47.477 0.178629L47.4737 8.44102C47.4736 8.63189 47.7508 8.69903 47.8468 8.53418C48.0119 8.25076 48.1772 7.99617 48.3239 7.77025L48.3389 7.74711C48.826 6.9794 49.4348 6.45595 50.1654 6.17677C50.9134 5.88014 51.8353 5.73183 52.9312 5.73183Z" fill="white"/>
<path d="M6.13181 13.2696C6.13181 14.8225 6.21009 15.8694 6.36665 16.4103C6.5232 16.9512 6.8885 17.3002 7.46254 17.4572C8.03292 17.5919 9.11292 17.6615 10.7025 17.6664C10.8008 17.6667 10.8807 17.7466 10.8807 17.8452V20.7596C10.8807 20.8583 10.8006 20.9382 10.7023 20.9378C8.22124 20.9284 6.44553 20.7191 5.37512 20.3101C4.27922 19.8913 3.58341 19.1933 3.28769 18.2162C3.00937 17.2217 2.87021 15.5728 2.87021 13.2696V9.65306C2.87021 9.55444 2.79051 9.47456 2.6922 9.47456H0.17801C0.0796977 9.47456 0 9.3946 0 9.29598V6.30298C0 6.20436 0.0796977 6.12442 0.17801 6.12442H2.6922C2.79051 6.12442 2.87021 6.04448 2.87021 5.94587V1.22546C2.87021 1.12685 2.9499 1.04691 3.04822 1.04691H5.9538C6.05211 1.04691 6.13181 1.12685 6.13181 1.22546V5.94587C6.13181 6.04448 6.21151 6.12442 6.30982 6.12442H10.6766C10.7749 6.12442 10.8546 6.20436 10.8546 6.30298V9.29598C10.8546 9.3946 10.7749 9.47456 10.6766 9.47456H6.30982C6.21151 9.47456 6.13181 9.55444 6.13181 9.65306V13.2696Z" fill="white"/>
<path fill-rule="evenodd" clip-rule="evenodd" d="M19.3466 5.96738C21.7994 5.96738 23.6258 6.54318 24.8261 7.69476C26.0263 8.82897 26.6266 10.5476 26.6266 12.8508V20.7596C26.6266 20.8583 26.5468 20.9382 26.4485 20.9382H23.6129C23.5146 20.9382 23.4349 20.8583 23.4349 20.7596V17.972C23.4349 17.7537 22.9819 17.6957 22.9033 17.8993C22.0261 20.1695 20.3999 21.3046 17.9115 21.3046C16.1198 21.3046 14.7804 20.9208 13.8932 20.1531C13.0061 19.3853 12.5625 18.2947 12.5625 16.8814C12.5625 15.3634 13.1626 14.1769 14.3629 13.3219C15.5631 12.4669 17.294 12.0395 19.5553 12.0395H23.1502C23.2617 12.0395 23.346 11.9375 23.3201 11.8287C23.1247 11.0106 22.7222 10.4004 22.1125 9.998C21.4689 9.54435 20.5469 9.31752 19.3466 9.31752C18.5117 9.31752 17.8072 9.492 17.2331 9.84097C16.6966 10.1508 16.1829 10.6283 15.6919 11.2735C15.6338 11.3498 15.5265 11.3687 15.4472 11.3149L13.0772 9.70677C12.995 9.65101 12.9741 9.53843 13.0319 9.45756C13.8399 8.32691 14.7359 7.46887 15.7197 6.88343C16.7635 6.27273 17.9724 5.96738 19.3466 5.96738ZM18.4073 17.9283C19.8685 17.9283 20.9904 17.6143 21.7733 16.9861C22.5109 16.3942 22.9937 15.5388 23.2216 14.42C23.2437 14.3116 23.1597 14.2118 23.0494 14.2118H19.5553C18.3029 14.2118 17.381 14.3776 16.7896 14.7091C16.1981 15.0232 15.9024 15.5117 15.9024 16.1748C15.9024 16.6982 16.1111 17.1257 16.5286 17.4572C16.9461 17.7713 17.5723 17.9283 18.4073 17.9283Z" fill="white"/>
<path d="M35.3867 21.3308C38.6478 21.3308 40.9704 20.0869 42.3546 17.5991C42.3991 17.5191 42.3742 17.4184 42.2985 17.3672L39.9432 15.7766C39.862 15.7218 39.752 15.7432 39.6949 15.8229C38.6636 17.2614 37.3146 17.9807 35.6477 17.9807C34.3778 17.9807 33.3515 17.5968 32.5687 16.8291C31.7859 16.0439 31.3945 14.9796 31.3945 13.636C31.3945 12.3622 31.7859 11.3241 32.5687 10.5215C33.3689 9.71883 34.3952 9.31752 35.6477 9.31752C36.5696 9.31752 37.3611 9.50945 38.0221 9.89331C38.6658 10.2409 39.3015 10.8634 39.9295 11.7607C39.9862 11.8417 40.0974 11.863 40.1788 11.8069L42.4861 10.2173C42.5596 10.1666 42.5845 10.0692 42.5428 9.99004C41.8698 8.71419 40.9457 7.73102 39.7703 7.04046C38.5527 6.32507 37.0914 5.96738 35.3867 5.96738C34.0125 5.96738 32.76 6.30763 31.6294 6.98812C30.5161 7.66858 29.6376 8.60214 28.994 9.78862C28.3678 10.9577 28.0547 12.2401 28.0547 13.636C28.0547 15.0319 28.3678 16.3231 28.994 17.5096C29.6376 18.6786 30.5161 19.6121 31.6294 20.3101C32.76 20.9906 34.0125 21.3308 35.3867 21.3308Z" fill="white"/>
<path fill-rule="evenodd" clip-rule="evenodd" d="M64.1926 20.2839C65.3233 20.9819 66.5757 21.3308 67.95 21.3308C69.3242 21.3308 70.5767 20.9819 71.7073 20.2839C72.838 19.5859 73.7252 18.635 74.3688 17.4311C75.0125 16.2271 75.3343 14.9098 75.3343 13.4789C75.3343 13.4032 75.3334 13.3277 75.3315 13.2526C75.3373 13.0776 75.3402 12.8862 75.3402 12.6775C75.3402 6.29851 69.2182 2.62047 66.2256 2.14519C66.0845 2.12277 65.9856 2.27507 66.0416 2.4069C66.2626 2.92681 66.3957 3.59757 66.3957 4.32978C66.3957 5.98155 65.7183 7.32059 64.8827 7.32059C64.3189 7.32059 63.8273 6.71124 63.567 5.8076C63.5383 5.7082 63.4339 5.64863 63.3407 5.69309C62.8878 5.90927 62.4429 6.40485 62.0417 7.27624C60.9269 9.69805 60.5218 11.4489 60.5396 13.4711V13.4789C60.5396 13.6357 60.5435 13.7911 60.5512 13.9452C60.555 14.0409 60.5596 14.1372 60.565 14.2344L60.5678 14.235L60.5705 14.2354C60.665 15.3772 60.9765 16.4423 61.505 17.4311C62.1661 18.635 63.062 19.5859 64.1926 20.2839ZM70.9507 16.8029C70.2027 17.6579 69.2025 18.0854 67.95 18.0854C66.7149 18.0854 65.7147 17.6579 64.9493 16.8029C64.1839 15.9305 63.8013 14.8313 63.8013 13.5051C63.8013 12.1965 64.1839 11.1147 64.9493 10.2597C65.7147 9.38732 66.7149 8.95111 67.95 8.95111C69.2025 8.95111 70.2027 9.3786 70.9507 10.2336C71.6986 11.0885 72.0726 12.179 72.0726 13.5051C72.0726 14.8313 71.6986 15.9305 70.9507 16.8029Z" fill="#F05138"/>
<path d="M79.4864 15.6163C79.5726 15.5773 79.6747 15.6133 79.7201 15.697C80.1232 16.4439 80.6193 17.0219 81.2062 17.431C81.8498 17.8498 82.6674 18.0592 83.6589 18.0592C85.7811 18.0592 86.8422 17.5968 86.8422 16.672C86.8422 16.2184 86.6334 15.8694 86.216 15.6251C85.7985 15.3809 84.9983 15.1453 83.8154 14.9185L82.8761 14.7353C80.8931 14.3689 79.4584 13.8105 78.5712 13.0602C77.6841 12.2925 77.2402 11.2805 77.2402 10.0242C77.2402 9.29135 77.4489 8.61959 77.8664 8.00883C78.3012 7.39816 78.9623 6.9096 79.8494 6.54319C80.7539 6.15932 81.8672 5.96738 83.1892 5.96738C84.8939 5.96738 86.2507 6.31635 87.2596 7.01429C88.2292 7.66805 89.0377 8.64387 89.6859 9.94171C89.7305 10.0301 89.6927 10.1372 89.6034 10.1798L87.1182 11.3679C87.0358 11.4074 86.9367 11.3774 86.8883 11.2997C86.4081 10.5356 85.8975 9.99694 85.3553 9.68393C84.7812 9.33497 84.059 9.16049 83.1892 9.16049C82.2151 9.16049 81.511 9.28262 81.0761 9.5269C80.6586 9.75373 80.4499 10.0591 80.4499 10.4429C80.4499 10.8442 80.6148 11.1583 80.9453 11.3851C81.2932 11.612 81.9368 11.8301 82.8761 12.0395L83.8154 12.2227C85.4506 12.5193 86.7121 12.8857 87.5992 13.3219C88.5038 13.7581 89.13 14.2642 89.4779 14.84C89.8258 15.3983 89.9997 16.0788 89.9997 16.8814C89.9997 17.6143 89.7736 18.3209 89.3213 19.0014C88.8865 19.6644 88.1907 20.2054 87.2339 20.6242C86.2772 21.0429 85.0853 21.2523 83.6589 21.2523C81.902 21.2523 80.4673 20.9208 79.354 20.2577C78.299 19.6025 77.3808 18.5592 76.5996 17.1276C76.5504 17.0372 76.589 16.9241 76.6828 16.8819L79.4864 15.6163Z" fill="white"/>
</g>
<defs>
<clipPath id="clip0_1100_3393">
<rect width="90" height="22" fill="white"/>
</clipPath>
</defs>
</svg>
