<svg preserveAspectRatio="none" width="100%" height="100%" overflow="visible" style="display: block;" viewBox="0 0 58 58" fill="none" xmlns="http://www.w3.org/2000/svg">
<foreignObject x="-25.8932" y="-25.8932" width="109.786" height="109.786"><div xmlns="http://www.w3.org/1999/xhtml" style="backdrop-filter:blur(12.95px);clip-path:url(#bgblur_0_0_11_clip_path);height:100%;width:100%"></div></foreignObject><g id="Frame 2131333056" data-figma-bg-blur-radius="25.8932">
<rect width="58" height="58" rx="16" fill="var(--fill-0, #343434)"/>
<path id="Vector" d="M38.9832 21.9678C39.139 20.9897 38.1817 20.2177 37.2865 20.5996L19.456 28.2044C18.814 28.4782 18.861 29.4229 19.5268 29.6289L23.2039 30.7664C23.9057 30.9835 24.6656 30.8712 25.2785 30.4599L33.5687 24.8961C33.8187 24.7283 34.0912 25.0736 33.8776 25.2874L27.9101 31.2642C27.3312 31.844 27.4461 32.8265 28.1425 33.2506L34.8237 37.3207C35.5731 37.7771 36.5371 37.3186 36.6772 36.4388L38.9832 21.9678Z" fill="var(--fill-0, #FF522C)"/>
</g>
<defs>
<clipPath id="bgblur_0_0_11_clip_path" transform="translate(25.8932 25.8932)"><rect width="58" height="58" rx="16"/>
</clipPath></defs>
</svg>
