<svg preserveAspectRatio="none" width="100%" height="100%" overflow="visible" style="display: block;" viewBox="0 0 25.4123 25.0497" fill="none" xmlns="http://www.w3.org/2000/svg">
<g id="Group 2131328176">
<path id="Vector" d="M24.351 0.000241435H12.1172C12.1172 1.44457 12.699 2.82974 13.7347 3.85103C14.7704 4.87232 16.1751 5.44607 17.6397 5.44607H19.8933V7.59161C19.8953 10.5965 22.3651 13.032 25.4123 13.034V1.04685C25.4123 0.468822 24.9371 0.000241435 24.351 0.000241435Z" fill="var(--fill-0, white)"/>
<path id="Vector_2" d="M18.2963 6.00029H6.0625C6.06445 9.00521 8.53425 11.4407 11.5815 11.4426H13.8351V13.5951C13.839 16.6001 16.3104 19.034 19.3576 19.034V7.04689C19.3576 6.46887 18.8824 6.00029 18.2963 6.00029Z" fill="var(--fill-0, white)"/>
<path id="Vector_3" d="M12.2338 12.016H0C0 15.0237 2.47252 17.4619 5.52253 17.4619H7.7832V19.6074C7.78514 22.6096 10.2506 25.044 13.2951 25.0497V13.0626C13.2951 12.4846 12.8199 12.016 12.2338 12.016Z" fill="var(--fill-0, white)"/>
</g>
</svg>
