<svg preserveAspectRatio="none" width="100%" height="100%" overflow="visible" style="display: block;" viewBox="0 0 47.5052 47.5052" fill="none" xmlns="http://www.w3.org/2000/svg">
<g id="Frame 2131327449">
<path id="Vector" opacity="0.2" d="M23.7526 47.5052C36.8708 47.5052 47.5052 36.8708 47.5052 23.7526C47.5052 10.6344 36.8708 0 23.7526 0C10.6344 0 0 10.6344 0 23.7526C0 36.8708 10.6344 47.5052 23.7526 47.5052Z" fill="var(--fill-0, #D3D3D3)"/>
<path id="Vector_2" fill-rule="evenodd" clip-rule="evenodd" d="M32.9488 12.668H14.5673C14.0646 12.668 13.5825 12.8677 13.227 13.2231C12.8716 13.5786 12.6719 14.0607 12.6719 14.5634V32.9416C12.6719 33.4443 12.8716 33.9264 13.227 34.2819C13.5825 34.6374 14.0646 34.8371 14.5673 34.8371H32.9488C33.451 34.8362 33.9322 34.6361 34.287 34.2807C34.6417 33.9254 34.841 33.4437 34.841 32.9416V14.5634C34.841 14.0613 34.6417 13.5797 34.287 13.2243C33.9322 12.8689 33.451 12.6688 32.9488 12.668ZM33.3701 26.926C33.3689 28.6326 32.6901 30.2688 31.4828 31.4751C30.2756 32.6813 28.6387 33.3587 26.9322 33.3584H20.5951C18.8888 33.3584 17.2524 32.6807 16.0458 31.4743C14.8391 30.268 14.161 28.6317 14.1605 26.9255V20.5757C14.1605 19.7307 14.3269 18.894 14.6502 18.1134C14.9736 17.3327 15.4475 16.6234 16.0451 16.026C16.6426 15.4285 17.352 14.9547 18.1327 14.6315C18.9134 14.3082 19.7501 14.142 20.5951 14.1422H26.946C28.6525 14.1425 30.2891 14.8203 31.4962 16.0266C32.7033 17.233 33.382 18.8692 33.3834 20.5757L33.369 26.9255L33.3701 26.926Z" fill="var(--fill-0, white)"/>
</g>
</svg>
