<svg preserveAspectRatio="none" width="100%" height="100%" overflow="visible" style="display: block;" viewBox="0 0 47.5052 47.5052" fill="none" xmlns="http://www.w3.org/2000/svg">
<g id="Frame 2131327448">
<path id="Vector" opacity="0.2" d="M23.7526 47.5052C36.8708 47.5052 47.5052 36.8708 47.5052 23.7526C47.5052 10.6344 36.8708 0 23.7526 0C10.6344 0 0 10.6344 0 23.7526C0 36.8708 10.6344 47.5052 23.7526 47.5052Z" fill="var(--fill-0, #D3D3D3)"/>
<path id="Vector 2299" d="M14.3197 16.082H9.75C9.75 30.823 19.9418 33.8195 25.0377 33.475V27.1894C29.4246 27.8094 31.4076 31.6381 31.8507 33.475H36.6696C35.0744 27.8266 31.5183 25.2665 29.9397 24.6924C33.3961 22.6259 35.2018 18.0911 35.6726 16.082H31.2691C29.5409 21.1794 26.3947 22.7981 25.0377 22.9703V16.082H20.6342V28.0505C15.5826 26.6728 14.3197 19.4975 14.3197 16.082Z" fill="var(--fill-0, white)"/>
</g>
</svg>
