<svg preserveAspectRatio="none" width="100%" height="100%" overflow="visible" style="display: block;" viewBox="0 0 47.5052 47.5052" fill="none" xmlns="http://www.w3.org/2000/svg">
<g id="Frame 2131327448">
<path id="Vector" opacity="0.2" d="M23.7526 47.5052C36.8708 47.5052 47.5052 36.8708 47.5052 23.7526C47.5052 10.6344 36.8708 0 23.7526 0C10.6344 0 0 10.6344 0 23.7526C0 36.8708 10.6344 47.5052 23.7526 47.5052Z" fill="var(--fill-0, #D3D3D3)"/>
<path id="Vector_2" d="M35.5997 13.9278C35.8111 12.5612 34.5118 11.4826 33.2967 12.0161L9.09552 22.6416C8.22415 23.0242 8.28789 24.3442 9.19163 24.6319L14.1824 26.2213C15.1351 26.5247 16.1665 26.3677 16.9983 25.7931L28.2506 18.0192C28.5899 17.7847 28.9598 18.2673 28.6698 18.566L20.5702 26.9168C19.7845 27.7269 19.9404 29.0996 20.8856 29.6923L29.954 35.379C30.9711 36.0167 32.2796 35.3761 32.4697 34.1469L35.5997 13.9278Z" fill="var(--fill-0, white)"/>
</g>
</svg>
